<svg width="107" height="107" viewBox="0 0 107 107" fill="none" xmlns="http://www.w3.org/2000/svg">
<rect x="1.5" y="1.5" width="104" height="104" rx="52" stroke="#70CBCE" stroke-width="3"/>
<path d="M71.9593 41.041H35.0406C32.6879 41.041 30.7808 42.5664 30.7808 44.4481V64.8903C30.7808 66.772 32.6879 68.2974 35.0406 68.2974H71.9593C74.3119 68.2974 76.2191 66.772 76.2191 64.8903V44.4481C76.2191 42.5664 74.3119 41.041 71.9593 41.041ZM71.9593 44.4481V47.3444C69.9694 48.6404 66.797 50.6557 60.0151 54.9031C58.5205 55.8433 55.5599 58.1023 53.4999 58.076C51.4403 58.1026 48.4787 55.843 46.9848 54.9031C40.2039 50.6563 37.0308 48.6406 35.0406 47.3444V44.4481H71.9593ZM35.0406 64.8903V51.7163C37.0742 53.0117 39.958 54.8296 44.3535 57.5825C46.2933 58.8037 49.6902 61.4996 53.4999 61.4832C57.2909 61.4996 60.6449 58.8428 62.6456 57.5831C67.041 54.8302 69.9256 53.0119 71.9593 51.7164V64.8903H35.0406Z" fill="#70CBCE"/>
</svg>
