<svg width="40" height="40" viewBox="0 0 40 40" fill="none" xmlns="http://www.w3.org/2000/svg">
<path d="M19.5 18.4759C19.0997 18.4761 18.7085 18.5949 18.3757 18.8174C18.0429 19.0399 17.7836 19.3561 17.6306 19.726C17.4775 20.0958 17.4375 20.5028 17.5157 20.8953C17.5939 21.2879 17.7867 21.6485 18.0698 21.9315C18.3529 22.2145 18.7136 22.4072 19.1062 22.4852C19.4988 22.5633 19.9057 22.5231 20.2755 22.3699C20.6453 22.2167 20.9614 21.9573 21.1838 21.6244C21.4061 21.2916 21.5248 20.9003 21.5248 20.5C21.5244 19.9632 21.3109 19.4485 20.9313 19.0689C20.5516 18.6894 20.0368 18.4761 19.5 18.4759ZM24.2323 16.9201C24.1293 16.659 23.9737 16.4218 23.7752 16.2233C23.5767 16.0248 23.3395 15.8692 23.0783 15.7662C22.2815 15.4516 20.3842 15.5222 19.5 15.5222C18.6158 15.5222 16.7204 15.449 15.9213 15.7662C15.6601 15.8692 15.423 16.0248 15.2245 16.2233C15.026 16.4218 14.8704 16.659 14.7673 16.9201C14.4531 17.717 14.5233 19.6162 14.5233 20.4996C14.5233 21.383 14.4531 23.28 14.7688 24.0795C14.8719 24.3406 15.0275 24.5778 15.226 24.7763C15.4245 24.9748 15.6617 25.1304 15.9228 25.2334C16.7197 25.548 18.617 25.4774 19.5015 25.4774C20.386 25.4774 22.2807 25.5507 23.0799 25.2334C23.341 25.1304 23.5782 24.9748 23.7767 24.7763C23.9752 24.5778 24.1308 24.3406 24.2338 24.0795C24.5507 23.2826 24.4778 21.3834 24.4778 20.5C24.4778 19.6166 24.5507 17.72 24.2338 16.9205L24.2323 16.9201ZM19.5 23.6116C18.8846 23.6116 18.283 23.4291 17.7713 23.0872C17.2596 22.7453 16.8608 22.2593 16.6252 21.6908C16.3897 21.1222 16.3281 20.4965 16.4482 19.893C16.5682 19.2894 16.8646 18.7349 17.2998 18.2998C17.7349 17.8646 18.2894 17.5682 18.893 17.4482C19.4965 17.3281 20.1222 17.3897 20.6908 17.6252C21.2593 17.8608 21.7453 18.2596 22.0872 18.7713C22.4291 19.283 22.6116 19.8846 22.6116 20.5C22.6121 20.9088 22.532 21.3136 22.3758 21.6914C22.2196 22.0691 21.9904 22.4123 21.7014 22.7014C21.4123 22.9904 21.0691 23.2196 20.6914 23.3758C20.3136 23.532 19.9088 23.6121 19.5 23.6116ZM22.7399 17.9842C22.5962 17.9842 22.4557 17.9417 22.3363 17.8619C22.2168 17.7822 22.1236 17.6688 22.0686 17.5361C22.0136 17.4034 21.9991 17.2573 22.0271 17.1164C22.0551 16.9755 22.1242 16.846 22.2258 16.7444C22.3273 16.6428 22.4568 16.5736 22.5977 16.5455C22.7386 16.5175 22.8846 16.5319 23.0173 16.5868C23.1501 16.6418 23.2635 16.7349 23.3434 16.8543C23.4232 16.9738 23.4658 17.1142 23.4658 17.2579C23.4662 17.3533 23.4477 17.4478 23.4115 17.5361C23.3753 17.6243 23.322 17.7046 23.2547 17.7722C23.1874 17.8398 23.1074 17.8935 23.0193 17.9301C22.9312 17.9667 22.8368 17.9856 22.7414 17.9857L22.7399 17.9842ZM26.1786 12H12.8214C12.3384 12 11.8751 12.1919 11.5335 12.5335C11.1919 12.8751 11 13.3384 11 13.8214V27.1786C11 27.6616 11.1919 28.1249 11.5335 28.4665C11.8751 28.8081 12.3384 29 12.8214 29H26.1786C26.6616 29 27.1249 28.8081 27.4665 28.4665C27.8081 28.1249 28 27.6616 28 27.1786V13.8214C28 13.3384 27.8081 12.8751 27.4665 12.5335C27.1249 12.1919 26.6616 12 26.1786 12ZM25.5289 23.0045C25.48 23.977 25.258 24.8388 24.548 25.5469C23.838 26.255 22.977 26.4815 22.0056 26.5278C21.0034 26.5843 17.9988 26.5843 16.9967 26.5278C16.0241 26.4788 15.1654 26.2565 14.4543 25.5469C13.7431 24.8373 13.5196 23.9751 13.4733 23.0045C13.4168 22.0019 13.4168 18.9969 13.4733 17.9955C13.5223 17.023 13.7416 16.1612 14.4543 15.4531C15.1669 14.745 16.0279 14.5212 16.9967 14.4749C17.9988 14.4183 21.0034 14.4183 22.0056 14.4749C22.9782 14.5238 23.8396 14.7462 24.548 15.4558C25.2565 16.1654 25.4826 17.0275 25.5289 18.0001C25.5855 18.9988 25.5855 22.0012 25.5289 23.0045Z" fill="#929496"/>
<rect x="0.5" y="0.5" width="39" height="39" rx="2.5" stroke="#929496"/>
</svg>
