<svg width="40" height="40" viewBox="0 0 40 40" fill="none" xmlns="http://www.w3.org/2000/svg">
<path d="M27.9442 15.9875C27.9569 16.1625 27.9569 16.3375 27.9569 16.5125C27.9569 21.85 23.8326 28 16.2944 28C13.9721 28 11.8147 27.3375 10 26.1875C10.33 26.225 10.6472 26.2375 10.9898 26.2375C12.9061 26.2375 14.6701 25.6 16.0787 24.5125C14.2767 24.475 12.7665 23.3125 12.2462 21.7125C12.5 21.75 12.7538 21.775 13.0203 21.775C13.3883 21.775 13.7564 21.725 14.099 21.6375C12.2208 21.2625 10.8122 19.6375 10.8122 17.675V17.625C11.3578 17.925 11.9924 18.1125 12.6649 18.1375C11.5609 17.4125 10.8375 16.175 10.8375 14.775C10.8375 14.025 11.0406 13.3375 11.3959 12.7375C13.4137 15.1875 16.4467 16.7875 19.8477 16.9625C19.7843 16.6625 19.7462 16.35 19.7462 16.0375C19.7462 13.8125 21.5736 12 23.8452 12C25.0254 12 26.0914 12.4875 26.8401 13.275C27.7665 13.1 28.6548 12.7625 29.4416 12.3C29.137 13.2375 28.4898 14.025 27.6396 14.525C28.4645 14.4375 29.264 14.2125 30 13.9C29.4417 14.7 28.7437 15.4125 27.9442 15.9875Z" fill="#929496"/>
<rect x="0.5" y="0.5" width="39" height="39" rx="2.5" stroke="#929496"/>
</svg>
